<?xml version="1.0" encoding="UTF-8"?>
<svg id="Layer_1" data-name="Layer 1" xmlns="http://www.w3.org/2000/svg" viewBox="0 0 954.97 367.85" fill="white">
  <path d="M170.65,139.39l35.47,34.98-35.09,34.98-26.92-26.43,6.6-6.11c1.3.23,12.71,13.55,15.67,15.38s6.64,1.68,9.53-.45c1.68-1.23,11.89-11.35,12.81-12.85,1.59-2.57,1.53-5.14.39-7.84-.82-1.95-11.17-12.65-13.2-14.07-3.04-2.13-6.73-2.17-9.87-.24l-26.49,26.43-6.11-6.21,37.2-37.58Z"/>
  <path d="M130.58,99.84c2.39-.64,30.92,31.04,35.41,34.5l-26.43,26.92-6.11-6.6,15.39-15.66c1.7-3.15,1.59-6.63-.45-9.55-1.25-1.78-10.23-10.73-12.04-12.02-3.1-2.22-6.83-2.69-10.16-.54-1.55,1-11.31,10.87-12.56,12.57-4.84,6.59,1,11.61,5.32,16.06,6.08,6.28,13.11,11.98,19.03,18.4,3.11,3.37-2.4,5.35-4.37,8.01l-37.58-37.2,34.56-34.89Z"/>
  <path d="M129.86,178.19c12.7,10.77,23.93,24.41,36.13,35.82l-34.98,35.47-34.98-35.09,26.36-26.36,6.21,6.11c0,1.16-14.61,13.21-15.98,16.63-.72,1.79-.86,3.8-.46,5.71.71,3.36,12.49,15.11,15.76,16.31,2.58.95,5.24.76,7.62-.71,1.43-.88,11.42-10.93,12.6-12.53,2.36-3.19,2.54-6.73.5-10.15l-26.43-26.49,6.67-6.15c.39.1.63,1.1,1,1.41Z"/>
  <path d="M100.07,148.09c4.88,4.77,9.65,9.93,14.36,14.78.88.91,3.34,1.62,2.88,3.37-.22.85-4.81,5.06-6.02,5.68-1.39-.24-12.64-13.65-16.1-15.48-2.89-1.53-6.05-1.5-8.81.31-1.56,1.02-11.73,11.19-12.86,12.8-1.81,2.59-2.03,4.98-.95,7.91.94,2.55,10.02,11.96,12.45,13.75,3.3,2.42,7.43,3.21,10.92.77l26.04-25.86,6.6,6.11-37.61,37.12-35.09-34.98,35.01-35.01c2.79,3.17,6.17,5.8,9.17,8.73Z"/>
  <path d="M700.45,169.29c1.81.56-.06,8-.53,9.63-6.91,23.84-41.44,24.55-49.17,1.04-7.49-22.77,16.83-42.75,37.49-30.54,1.71,1.01,8.96,6.76,7.97,8.64l-8.16,5.26c-3.16-2.11-4.51-4.7-8.49-5.76-12.34-3.3-22.71,7.79-18.14,19.74,3.93,10.27,19.31,12.31,25.39,3.22h-13.37v-10.43l.8-.8h26.2Z"/>
  <path d="M765.41,147.64l1.09-.58c9.84,1.57,21.39-2.3,30.1,3.61,10.55,7.16,8.43,24.97-2.87,30.14l10.17,15.22h-13.1c-2.62-2.07-6.81-10.99-9.05-12.34-1.36-.81-4.52-.97-5.65.3v12.03h-10.69v-48.39ZM776.11,172.5h9.89c.54,0,4-1.8,4.56-2.39,2.52-2.69,3.04-7.66.02-10.21-.61-.52-4.01-1.84-4.58-1.84h-9.89v14.44Z"/>
  <path d="M720.5,147.37v16.04h22.99v-16.04h10.69v48.66h-10.69v-21.39h-22.99v21.39h-10.43l-.8-.8v-47.59l.8-.69c.22-.02.4.42.53.42h9.89Z"/>
  <path d="M860.05,196.02h-11.5l-5.43-10.61-20.56.25-4.22,10.36h-11.76l20.84-48.43.78-.55,10.22-.03,21.62,49.02ZM839.2,174.64c-.75-.91-5.42-13.56-6.41-12.83l-5.35,12.83h11.76Z"/>
  <path d="M631.21,147.37h10.69v30.21c0,.62-1.26,4.97-1.58,5.9-7.61,21.77-45.47,16.5-45.47-5.9v-30.21h9.89c.16,0,.41-.68.8-.53v28.61c0,.52,1.38,5.1,1.73,5.76,3.98,7.48,20.06,7.21,22.89-1.99.26-.83,1.04-4.24,1.04-4.84v-27Z"/>
  <polygon points="587.9 147.37 587.9 158.06 573.46 158.06 573.46 195.22 572.66 196.02 562.23 196.02 562.23 158.06 547.8 158.06 547.8 147.37 587.9 147.37"/>
  <polygon points="420.54 162.87 420.54 137.74 428.03 137.74 428.03 174.1 418.4 174.1 401.83 148.97 401.83 174.1 393.81 174.1 393.81 137.74 403.16 137.74 420.54 162.87"/>
  <path d="M268.03,137.36c22.77-2.48,28.93,29.5,8.29,36.09-26.84,8.57-35.02-33.18-8.29-36.09ZM261.92,148.62c-9.24,9.86,5.95,24.86,16.14,14.81s-5.98-25.66-16.14-14.81Z"/>
  <path d="M309.06,137.74c13.07,1.85,14.2,20.65.8,23.26,3.28,3.92,7.78,7.07,11.24,10.68.67.7,1.72,1.32,1.59,2.42h-10.43l-10.96-11.76v11.76h-8.02v-36.36c4.9.5,11.04-.67,15.77,0ZM301.3,154.32c13.7,2.29,13.65-11.84,0-9.62v9.62Z"/>
  <path d="M362.26,137.74v21.65c0,.64,1.4,3.82,1.9,4.51,3.57,4.88,12.82,3.15,13.61-3.43s-.69-14.95.06-21.86c.56-1.7,6.32-.55,7.95-.88v24.86c0,.34-1.84,4.65-2.23,5.26-5.58,8.83-21.56,8.87-26.75-.35-.5-.89-2.04-4.17-2.04-4.91v-24.86h7.49Z"/>
  <path d="M457.97,137.74v6.95h-13.9v6.95h12.03c1.31,1.64,1.29,5.91,0,7.49h-12.03v8.02h13.9v6.95h-21.92v-36.36h21.92Z"/>
  <path d="M246.77,137.74v6.95h-16.04v7.49h13.9c-.33,2.37.84,5.63-.8,7.49h-13.1v14.44h-8.02v-30.74c0-1.64,3.29-5.61,5.08-5.61h18.98Z"/>
  <rect x="503.42" y="39.9" width="1.6" height="282.85"/>
  <polygon points="349.96 137.74 349.96 144.69 339.8 144.69 339.8 174.1 332.32 174.1 332.32 145.5 331.51 144.69 322.16 144.69 322.16 137.74 349.96 137.74"/>
  <path d="M305.04,217.94c-4.76,1.02-5.53-1.51-8.82-3.76-13.98,10.5-33.35-1.55-29.11-18.93,3.78-15.51,25.65-18.15,33.55-4.21,4.04,7.13,2.4,13.94-1.43,20.68.12.62,6.87,5.27,5.8,6.21ZM274.22,189.8c-14.35,15.12,10.46,34.85,22.27,18.79,10.73-14.58-10.16-31.55-22.27-18.79Z"/>
  <path d="M402.09,182.12c11.54,1.55,14.96,15.05,4.17,20.21l-6.57,1.71c4.82,3.34,9.68,6.93,14.14,10.72.51.43,3.61,2.61,2.96,3.18-1.46-.1-3.08.2-4.51-.03-2.15-.34-14.45-11.37-17.41-13.61-.54-.4-.67-1.04-1.61-.8v14.44h-3.21v-35.82c3.78.36,8.37-.49,12.03,0ZM393.27,200.3h8.29c1.7,0,5.78-2.44,6.61-4.08.96-1.89,1.01-5.38-.21-7.14-.66-.96-4.94-3.22-5.87-3.22h-8.82v14.44Z"/>
  <path d="M382.57,217.94c-1.43-.07-3.24.46-4.31-.77-1.33-1.52-3.8-10.47-5.12-10.92l-17.36.26-4.84,11.34-4.19.09,16.02-35.57c1.34-.42,3.4-.71,4.24.61l15.56,34.96ZM357.98,202.98h13.1l.57-1.09c-.87-1.05-6.44-15.57-7.25-14.95l-6.42,16.04Z"/>
  <polygon points="443 182.12 443 185.87 426.96 185.87 426.96 197.63 442.46 197.63 442.46 201.37 426.96 201.37 426.96 214.2 443.53 214.2 443.53 217.95 423.21 217.95 423.21 182.12 443 182.12"/>
  <path d="M315.74,182.12v24.33c0,.35,1.52,3.43,1.91,3.98,3.58,5.16,13.72,5.29,17.63.59.78-.93,2.39-4.67,2.39-5.63v-23.26c1.15.06,3.23-.46,3.67.88-.67,8.51,2.47,24.78-3.91,31.23-5.57,5.62-17.98,5.17-22.74-1.36-.78-1.07-2.68-5.34-2.68-6.41v-24.33h3.74Z"/>
  <path d="M259.06,188l-3.41,1.04c-3.27-6.07-14.74-3.91-12.52,3.41,1.56,5.15,15.94,5.05,17.41,13.07,2.8,15.22-19.47,16.89-22.87,4.43,4-1.46,3.3.69,5.37,2.38,3.49,2.87,11.79,3.21,13.72-1.76,4.47-11.52-19.93-7.75-17.35-21.63,1.69-9.14,16.63-9.25,19.66-.93Z"/>
</svg>