<?xml version="1.0" encoding="UTF-8"?>
<svg id="Layer_1" data-name="Layer 1" xmlns="http://www.w3.org/2000/svg" viewBox="0 0 954.97 367.85" fill="white">
  <path d="M170.65,139.39l35.47,34.98-35.09,34.98-26.92-26.43,6.6-6.11c1.3.23,12.71,13.55,15.67,15.38s6.64,1.68,9.53-.45c1.68-1.23,11.89-11.35,12.81-12.85,1.59-2.57,1.53-5.14.39-7.84-.82-1.95-11.17-12.65-13.2-14.07-3.04-2.13-6.73-2.17-9.87-.24l-26.49,26.43-6.11-6.21,37.2-37.58Z"/>
  <path d="M130.58,99.84c2.39-.64,30.92,31.04,35.41,34.5l-26.43,26.92-6.11-6.6,15.39-15.66c1.7-3.15,1.59-6.63-.45-9.55-1.25-1.78-10.23-10.73-12.04-12.02-3.1-2.22-6.83-2.69-10.16-.54-1.55,1-11.31,10.87-12.56,12.57-4.84,6.59,1,11.61,5.32,16.06,6.08,6.28,13.11,11.98,19.03,18.4,3.11,3.37-2.4,5.35-4.37,8.01l-37.58-37.2,34.56-34.89Z"/>
  <path d="M129.86,178.19c12.7,10.77,23.93,24.41,36.13,35.82l-34.98,35.47-34.98-35.09,26.36-26.36,6.21,6.11c0,1.16-14.61,13.21-15.98,16.63-.72,1.79-.86,3.8-.46,5.71.71,3.36,12.49,15.11,15.76,16.31,2.58.95,5.24.76,7.62-.71,1.43-.88,11.42-10.93,12.6-12.53,2.36-3.19,2.54-6.73.5-10.15l-26.43-26.49,6.67-6.15c.39.1.63,1.1,1,1.41Z"/>
  <path d="M100.07,148.09c4.88,4.77,9.65,9.93,14.36,14.78.88.91,3.34,1.62,2.88,3.37-.22.85-4.81,5.06-6.02,5.68-1.39-.24-12.64-13.65-16.1-15.48-2.89-1.53-6.05-1.5-8.81.31-1.56,1.02-11.73,11.19-12.86,12.8-1.81,2.59-2.03,4.98-.95,7.91.94,2.55,10.02,11.96,12.45,13.75,3.3,2.42,7.43,3.21,10.92.77l26.04-25.86,6.6,6.11-37.61,37.12-35.09-34.98,35.01-35.01c2.79,3.17,6.17,5.8,9.17,8.73Z"/>

</svg>